<svg xmlns="http://www.w3.org/2000/svg" width="100%" height="100%" fill="none" viewBox="0 0 1801 274" class="styles_aboutHero_titleMeasure__gHx31"><path fill="#FFF3E2" d="M63.375 268 .375 5.5h67.5l19.5 82.125c9.375 40.875 15 79.5 15 79.5S111 128.875 123 88.75L147.375 5.5h51l22.5 78c11.625 40.125 19.875 78 19.875 78S246 123.25 254.625 82L272.25 5.5h64.5l-63 262.5h-58.875l-44.25-148.125L126.375 268zm404.414 5.25c-77.25 0-137.625-59.625-137.625-136.125C330.164 59.875 390.539.25 467.789.25s137.25 59.625 137.25 136.875c0 76.5-60 136.125-137.25 136.125m-72.375-136.125c0 42.75 31.5 76.125 72.375 76.125 40.5 0 72-33.375 72-76.125 0-43.125-31.5-76.875-72-76.875-40.875 0-72.375 33.75-72.375 76.875M718.652 72.25c18 37.875 32.625 74.625 32.625 74.625s-2.25-39.375-2.25-81.375v-60h61.875V268h-56.25l-39.375-78.375c-18.375-37.5-33-74.25-33-74.25s2.625 39.375 2.625 81.375V268h-61.875V5.5h62.25zM894.009 208c18.375 0 29.625-6.75 29.625-29.625V5.5h63.375v193.125c0 42.75-29.25 69.375-73.125 69.375h-31.125v-60zm114.191-1.5h63.38V268h-63.38zm104.76-201h69l41.25 96 40.5-96h68.63l-77.25 167.25V268h-63.38v-95.25zm336.38 267.75c-77.25 0-137.63-59.625-137.63-136.125 0-77.25 60.38-136.875 137.63-136.875s137.25 59.625 137.25 136.875c0 76.5-60 136.125-137.25 136.125m-72.38-136.125c0 42.75 31.5 76.125 72.38 76.125 40.5 0 72-33.375 72-76.125 0-43.125-31.5-76.875-72-76.875-40.88 0-72.38 33.75-72.38 76.875M1701.7 273.25c-60.37 0-99.37-40.875-99.37-103.5V5.5h63.37v165.75c0 25.5 14.25 42 36 42s35.63-16.5 35.63-42V5.5h63.37v164.25c0 62.625-38.62 103.5-99 103.5"/></svg>