<svg width="245" height="25" viewBox="0 0 245 25" fill="none" xmlns="http://www.w3.org/2000/svg">
<path d="M9.89 -1.43051e-06C12.53 -1.43051e-06 14.7 0.539999 16.4 1.62C18.1 2.68 18.97 4.26 19.01 6.36V6.72H12.8V6.6C12.8 6 12.58 5.5 12.14 5.1C11.7 4.7 11.03 4.5 10.13 4.5C9.25 4.5 8.57 4.63 8.09 4.89C7.63 5.15 7.4 5.47 7.4 5.85C7.4 6.39 7.72 6.79 8.36 7.05C9 7.31 10.03 7.58 11.45 7.86C13.11 8.2 14.47 8.56 15.53 8.94C16.61 9.3 17.55 9.9 18.35 10.74C19.15 11.58 19.56 12.72 19.58 14.16C19.58 16.6 18.75 18.41 17.09 19.59C15.45 20.77 13.25 21.36 10.49 21.36C7.27 21.36 4.76 20.82 2.96 19.74C1.18 18.66 0.29 16.75 0.29 14.01H6.56C6.56 15.05 6.83 15.75 7.37 16.11C7.91 16.45 8.75 16.62 9.89 16.62C10.73 16.62 11.42 16.53 11.96 16.35C12.52 16.17 12.8 15.8 12.8 15.24C12.8 14.74 12.49 14.37 11.87 14.13C11.27 13.87 10.28 13.6 8.9 13.32C7.22 12.96 5.83 12.59 4.73 12.21C3.63 11.81 2.67 11.16 1.85 10.26C1.03 9.36 0.62 8.14 0.62 6.6C0.62 4.34 1.49 2.68 3.23 1.62C4.99 0.539999 7.21 -1.43051e-06 9.89 -1.43051e-06ZM22.8704 0.359999H40.7204V5.31H29.5004V8.16H39.1004V12.9H29.5004V16.05H40.9304V21H22.8704V0.359999ZM64.1108 6.69C64.1108 7.95 63.7708 9.09 63.0908 10.11C62.4108 11.13 61.4208 11.88 60.1208 12.36L64.7108 21H57.2708L53.6108 13.47H51.1508V21H44.5208V0.359999H57.1508C58.6308 0.359999 59.8908 0.649999 60.9308 1.23C61.9908 1.79 62.7808 2.56 63.3008 3.54C63.8408 4.5 64.1108 5.55 64.1108 6.69ZM57.3608 6.96C57.3608 6.42 57.1808 5.97 56.8208 5.61C56.4608 5.25 56.0208 5.07 55.5008 5.07H51.1508V8.88H55.5008C56.0208 8.88 56.4608 8.7 56.8208 8.34C57.1808 7.96 57.3608 7.5 57.3608 6.96ZM77.723 -1.43051e-06C79.703 -1.43051e-06 81.483 0.299999 83.063 0.899999C84.643 1.5 85.893 2.39 86.813 3.57C87.753 4.73 88.223 6.15 88.223 7.83H81.893C81.893 6.97 81.513 6.28 80.753 5.76C79.993 5.22 79.073 4.95 77.993 4.95C76.433 4.95 75.253 5.37 74.453 6.21C73.653 7.03 73.253 8.2 73.253 9.72V11.64C73.253 13.16 73.653 14.34 74.453 15.18C75.253 16 76.433 16.41 77.993 16.41C79.073 16.41 79.993 16.16 80.753 15.66C81.513 15.14 81.893 14.48 81.893 13.68H77.213V9.48H88.223V21H84.803L84.143 18.96C82.263 20.56 79.803 21.36 76.763 21.36C73.343 21.36 70.773 20.47 69.053 18.69C67.333 16.89 66.473 14.22 66.473 10.68C66.473 7.18 67.443 4.53 69.383 2.73C71.343 0.909999 74.123 -1.43051e-06 77.723 -1.43051e-06ZM92.6333 21V0.359999H99.2633V21H92.6333ZM114.253 -1.43051e-06C117.813 -1.43051e-06 120.563 0.909999 122.503 2.73C124.443 4.55 125.413 7.2 125.413 10.68C125.413 14.16 124.443 16.81 122.503 18.63C120.563 20.45 117.813 21.36 114.253 21.36C110.693 21.36 107.943 20.46 106.003 18.66C104.083 16.84 103.123 14.18 103.123 10.68C103.123 7.18 104.083 4.53 106.003 2.73C107.943 0.909999 110.693 -1.43051e-06 114.253 -1.43051e-06ZM114.253 4.95C112.833 4.95 111.753 5.38 111.013 6.24C110.273 7.1 109.903 8.26 109.903 9.72V11.64C109.903 13.1 110.273 14.26 111.013 15.12C111.753 15.98 112.833 16.41 114.253 16.41C115.673 16.41 116.753 15.98 117.493 15.12C118.253 14.26 118.633 13.1 118.633 11.64V9.72C118.633 8.26 118.253 7.1 117.493 6.24C116.753 5.38 115.673 4.95 114.253 4.95ZM156.704 21V13.56C156.704 12.64 156.734 11.7 156.794 10.74C156.874 9.76 156.954 8.94 157.034 8.28C157.114 7.62 157.164 7.2 157.184 7.02H157.064L153.254 21H148.064L144.224 7.05H144.104C144.124 7.23 144.174 7.65 144.254 8.31C144.354 8.95 144.444 9.76 144.524 10.74C144.604 11.7 144.644 12.64 144.644 13.56V21H138.554V0.359999H147.914L151.034 12.27H151.154L154.244 0.359999H163.274V21H156.704ZM181.134 21L180.264 18.09H173.034L172.164 21H165.384L172.914 0.359999H180.624L188.154 21H181.134ZM174.414 13.47H178.884L176.724 6.12H176.604L174.414 13.47ZM210.244 6.69C210.244 7.95 209.904 9.09 209.224 10.11C208.544 11.13 207.554 11.88 206.254 12.36L210.844 21H203.404L199.744 13.47H197.284V21H190.654V0.359999H203.284C204.764 0.359999 206.024 0.649999 207.064 1.23C208.124 1.79 208.914 2.56 209.434 3.54C209.974 4.5 210.244 5.55 210.244 6.69ZM203.494 6.96C203.494 6.42 203.314 5.97 202.954 5.61C202.594 5.25 202.154 5.07 201.634 5.07H197.284V8.88H201.634C202.154 8.88 202.594 8.7 202.954 8.34C203.314 7.96 203.494 7.5 203.494 6.96ZM212.547 10.68C212.547 7.18 213.507 4.53 215.427 2.73C217.367 0.909999 220.117 -1.43051e-06 223.677 -1.43051e-06C227.237 -1.43051e-06 229.987 0.909999 231.927 2.73C233.867 4.55 234.837 7.2 234.837 10.68C234.837 13 234.397 14.96 233.517 16.56C232.657 18.14 231.397 19.34 229.737 20.16L234.447 24.93H226.557L223.377 21.36C219.897 21.3 217.217 20.37 215.337 18.57C213.477 16.75 212.547 14.12 212.547 10.68ZM228.057 9.72C228.057 8.26 227.677 7.1 226.917 6.24C226.177 5.38 225.097 4.95 223.677 4.95C222.257 4.95 221.177 5.38 220.437 6.24C219.697 7.1 219.327 8.26 219.327 9.72V11.64C219.327 13.1 219.697 14.26 220.437 15.12C221.177 15.98 222.257 16.41 223.677 16.41C225.097 16.41 226.177 15.98 226.917 15.12C227.677 14.26 228.057 13.1 228.057 11.64V9.72ZM238.516 21V15.03H244.876V21H238.516Z" fill="white"/>
</svg>
